<svg width="48" height="48" viewBox="0 0 94 106" fill="none" xmlns="http://www.w3.org/2000/svg" stroke-width="1px" stroke-linecap="round" stroke-linejoin="round"><path d="M71.6299 82.2098V100.52L40.6797 103.08V77.6598L47.0698 81.3498L52.2898 84.3598V71.0498L52.9397 71.4298L53.0398 71.4798L60.6797 75.8898L71.6299 82.2098Z" stroke="#f74040" stroke-linejoin="round"/><path d="M32.9399 73.1998V98.6098L2 60.3198V42.0098L21.3401 53.1798V66.4998L32.9399 73.1998Z" stroke="#f74040" stroke-linejoin="round"/><path d="M40.5898 33.8698L40.6797 33.9198V33.8198L40.5898 33.8698Z" stroke="#f74040" stroke-linejoin="round"/><path d="M29.5798 62.3796L21.3398 66.4996V53.1796L23.4597 52.1196L29.0798 49.3096V62.0896L29.5798 62.3796Z" stroke="#f74040" stroke-linejoin="round"/><path d="M52.29 48.8498V49.3898L49.0801 50.9998L44.55 53.2598L41.3401 51.4098L33.7 46.9998L29.0801 44.3298L36.72 40.5098L40.6799 38.5298V42.1498L49.0801 46.9998L52.29 48.8498Z" stroke="#f74040" stroke-linejoin="round"/><path d="M91.6299 72.21V90.52L71.6299 100.52V82.21L91.6299 72.21Z" stroke="#f74040" stroke-linejoin="round"/><path d="M91.6301 72.2097L71.6301 82.2097L60.6799 75.8897L53.04 71.4797L52.9399 71.4297L52.29 71.0497L52.9399 70.7297L60.53 66.9297L71.6301 73.3397L72.29 73.0097L83.3901 67.4597L91.6301 72.2097Z" stroke="#f74040" stroke-linejoin="round"/><path d="M91.6299 45.0298V63.3398L83.3899 67.4598L72.2898 73.0098L71.6299 73.3398V55.0298L74.6399 53.5298L91.6299 45.0298Z" stroke="#f74040" stroke-linejoin="round"/><path d="M91.6299 45.0297L74.6399 53.5297L71.6299 55.0297L64.5498 46.2697L62.8198 44.1297L59.9897 40.6297L50.5098 28.8997L46.5498 23.9997L40.6797 16.7397L60.6797 6.73975L91.6299 45.0297Z" stroke="#f74040" stroke-linejoin="round"/><path d="M40.6797 33.9197V34.6297L33.0999 38.4197L21.3398 44.2997V30.9897L32.9397 37.6897L40.5898 33.8697L40.6797 33.9197Z" stroke="#f74040" stroke-linejoin="round"/><path d="M32.9399 12.2798V37.6898L21.3401 30.9898V44.2998L10.24 37.8898L2 33.1398V14.8298L22 13.1798L32.9399 12.2798Z" stroke="#f74040" stroke-linejoin="round"/><path d="M52.9399 2.27979L32.9399 12.2798L22 13.1798L2 14.8298L22 4.82979L52.9399 2.27979Z" stroke="#f74040" stroke-linejoin="round"/><path d="M52.9399 2.27979V10.6098L40.6799 16.7398V33.8198L40.5901 33.8698L32.9399 37.6898V12.2798L52.9399 2.27979Z" stroke="#f74040" stroke-linejoin="round"/><path d="M71.6299 55.0297V73.3397L60.5298 66.9297L56.9099 64.8397L52.2898 62.1697V48.8497L49.0798 46.9997L40.6797 42.1497V16.7397L46.5498 23.9997L50.5098 28.8997L59.9897 40.6297L62.8198 44.1297L64.5498 46.2697L71.6299 55.0297Z" stroke="#f74040" stroke-linejoin="round"/><path d="M41.1797 69.0799L38.3198 70.5099L32.9397 73.1999L21.3398 66.4999L29.5798 62.3799L33.6399 64.7199L41.1797 69.0799Z" stroke="#f74040" stroke-linejoin="round"/><path d="M40.6799 34.6299V38.5299L36.72 40.5099L29.0801 44.3299V49.3099L23.46 52.1199L21.3401 53.1799L2 42.0099L10.24 37.8899L21.3401 44.2999L33.1001 38.4199L40.6799 34.6299Z" stroke="#f74040" stroke-linejoin="round"/><path d="M44.55 53.2596V71.0196L41.1799 69.0796L33.6401 64.7196L29.5801 62.3796L29.0801 62.0896V44.3296L33.7 46.9996L41.3401 51.4096L44.55 53.2596Z" stroke="#f74040" stroke-linejoin="round"/><path d="M56.9099 64.8396L52.9397 66.8297L44.5498 71.0196V53.2596L49.0798 50.9996L52.2898 49.3896V62.1696L56.9099 64.8396Z" stroke="#f74040" stroke-linejoin="round"/><path d="M52.2898 71.8599V84.3599L47.0698 81.3499L40.6797 77.6599L43.1099 76.4399L52.2898 71.8599Z" stroke="#f74040" stroke-linejoin="round"/><path d="M52.9399 66.8296V70.7296L52.29 71.0496V71.8596L43.1101 76.4396L40.6799 77.6596V94.7396L32.9399 98.6096V73.1996L38.3201 70.5096L41.1799 69.0796L44.55 71.0196L52.9399 66.8296Z" stroke="#f74040" stroke-linejoin="round"/></svg>