<svg width="48" height="48" viewBox="0 0 100 94" fill="none" xmlns="http://www.w3.org/2000/svg" stroke-width="1px" stroke-linecap="round" stroke-linejoin="round"><path d="M42.8899 42.3296L36.8999 45.3196L43.6099 49.1896L47.8499 47.0696C46.1499 45.6596 44.4999 44.0796 42.8899 42.3296Z" stroke="#f74040" stroke-linejoin="round"/><path d="M43.48 8.31944L36.77 11.6794L23.48 18.3194L16.77 14.4395L36.77 4.43945L43.48 8.31944Z" stroke="#f74040" stroke-linejoin="round"/><path d="M43.48 8.31934V10.2893L36.77 13.6393L35.98 14.0393L35.61 14.2193C33.29 15.4293 31.48 17.4493 30.19 20.2693C31.37 24.2093 32.98 27.9693 35.02 31.5593L30.35 33.8893L26.83 35.6493V47.4493L23.48 49.1193V18.3193L36.77 11.6793L43.48 8.31934Z" stroke="#f74040" stroke-linejoin="round"/><path d="M58.0499 53.2793L46.9599 58.8293V59.0693L43.6099 60.7393V49.1893L47.8499 47.0693C48.0199 47.2193 48.1999 47.3693 48.3799 47.5093C50.0899 48.8893 51.8499 50.0993 53.6699 51.1493C55.1699 52.0093 56.6299 52.7293 58.0499 53.2793Z" stroke="#f74040" stroke-linejoin="round"/><path d="M46.9599 59.0693V62.6793L43.6099 60.7393L46.9599 59.0693Z" stroke="#f74040" stroke-linejoin="round"/><path d="M53.67 62.6995V81.9495C53.67 86.1895 52.36 89.0494 49.73 90.5494C47.1 92.0494 43.94 91.7295 40.25 89.5995L22.05 79.0894L2 44.4194L7.37 41.1694L16.77 49.7695V14.4395L23.48 18.3194V49.1194L26.83 51.0495V35.6494L33.54 39.5294V54.9294L34.02 55.2094L36.9 56.8694V45.3194L43.61 49.1895V60.7394L46.96 62.6794V58.8295L47.18 58.9594L53.67 62.6995Z" stroke="#f74040" stroke-linejoin="round"/><path d="M73.67 52.6993L53.67 62.6994L47.18 58.9593L46.96 58.8293L58.05 53.2793H58.06C58.15 53.3193 58.23 53.3493 58.31 53.3893C61.65 54.6493 64.79 55.0793 67.75 54.6693C69.34 54.4493 70.76 53.9793 72.02 53.2693L73.43 52.5693L73.66 52.6993H73.67Z" stroke="#f74040" stroke-linejoin="round"/><path d="M36.9 53.2495V56.8695L34.02 55.2095L33.54 54.9295L33.79 54.8095L36.9 53.2495Z" stroke="#f74040" stroke-linejoin="round"/><path d="M42.89 42.3293L36.9 45.3193V53.2493L33.79 54.8093L33.54 54.9293V39.5293L35.46 38.5693L36.77 37.9193L38.55 37.0293C38.88 37.4893 39.23 37.9493 39.58 38.3993C40.09 39.0493 40.6 39.6893 41.12 40.2993C41.7 40.9993 42.29 41.6793 42.89 42.3293Z" stroke="#f74040" stroke-linejoin="round"/><path d="M38.5501 37.0296L36.7701 37.9196L35.4601 38.5696L33.5401 39.5296L26.8301 35.6496L30.3501 33.8896L35.0201 31.5596C35.5701 32.5396 36.1501 33.4996 36.7701 34.4496C37.3401 35.3196 37.9301 36.1796 38.5501 37.0296Z" stroke="#f74040" stroke-linejoin="round"/><path d="M26.83 47.4492V51.0492L23.48 49.1192L26.83 47.4492Z" stroke="#f74040" stroke-linejoin="round"/><path d="M73.67 52.6992V71.9492C73.67 76.1892 72.36 79.0492 69.73 80.5492L69.01 80.9092L68.9 80.9592L49.73 90.5492C52.36 89.0492 53.67 86.1892 53.67 81.9492V62.6992L73.67 52.6992Z" stroke="#f74040" stroke-linejoin="round"/><path d="M16.7701 36.4692V49.7692L7.37012 41.1692L16.7701 36.4692Z" stroke="#f74040" stroke-linejoin="round"/><path d="M75.2199 41.9893C73.9599 38.9693 72.4199 36.0693 70.6199 33.2793C69.7299 31.9093 68.7799 30.5693 67.7599 29.2593C65.6799 26.5693 63.5099 24.1893 61.2499 22.1093C58.8299 19.8893 56.2999 18.0193 53.6699 16.4993C53.1399 16.1993 52.6199 15.9093 52.1099 15.6493C49.0899 14.0993 46.2099 13.1893 43.4799 12.9293C42.1499 12.7893 40.8499 12.8093 39.5799 12.9893C38.5799 13.1293 37.6399 13.3593 36.7699 13.6993C36.4999 13.7993 36.2399 13.9193 35.9799 14.0393L35.6099 14.2193C33.2899 15.4293 31.4799 17.4493 30.1899 20.2693C31.3699 24.2093 32.9799 27.9693 35.0199 31.5593C35.5699 32.5393 36.1499 33.4993 36.7699 34.4493C37.3399 35.3193 37.9299 36.1793 38.5499 37.0293C38.8799 37.4893 39.2299 37.9493 39.5799 38.3993C40.0899 39.0493 40.5999 39.6893 41.1199 40.2993C41.6999 40.9993 42.2899 41.6793 42.8899 42.3293C44.4999 44.0793 46.1499 45.6593 47.8499 47.0693C48.0199 47.2193 48.1999 47.3693 48.3799 47.5093C50.0899 48.8893 51.8499 50.0993 53.6699 51.1493C55.1699 52.0093 56.6299 52.7293 58.0499 53.2793H58.0599C58.1499 53.3193 58.2299 53.3493 58.3099 53.3893C61.6499 54.6493 64.7899 55.0793 67.7499 54.6693C69.3399 54.4493 70.7599 53.9793 72.0199 53.2693C72.4499 53.0293 72.8599 52.7593 73.2499 52.4593C74.8599 51.2493 76.1499 49.5593 77.1499 47.3893C76.5999 45.5493 75.9499 43.7493 75.2099 41.9893H75.2199ZM61.9899 39.9993C61.7499 41.9693 60.9699 43.3293 59.6299 44.0993C58.8099 44.5593 57.8999 44.7393 56.8999 44.6193C56.1099 44.5393 55.2699 44.2693 54.3699 43.8093H54.3599C54.1299 43.7093 53.8999 43.5893 53.6699 43.4493C53.6299 43.4193 53.5799 43.3993 53.5399 43.3693C51.8499 42.3693 50.3499 40.9893 49.0499 39.2393C48.5799 38.6093 48.1399 37.9393 47.7199 37.2193C47.3799 36.6393 47.0799 36.0693 46.8299 35.4993C46.4799 34.7693 46.1899 34.0393 45.9699 33.3093C45.5099 31.8593 45.2799 30.4093 45.2799 28.9793C45.2799 27.9293 45.3999 27.0193 45.6499 26.2393C46.0399 25.0093 46.7199 24.1193 47.7199 23.5493C49.3399 22.6293 51.3199 22.8493 53.6699 24.1993C54.1699 24.4893 54.6499 24.8093 55.1199 25.1693C56.8499 26.4693 58.3499 28.2293 59.6299 30.4293C61.0299 32.8493 61.8299 35.2293 62.0099 37.5793C62.0399 37.8093 62.0499 38.0493 62.0399 38.2893C62.0599 38.4193 62.0599 38.5393 62.0599 38.6693C62.0599 39.1393 62.0399 39.5793 61.9899 39.9993Z" stroke="#f74040" stroke-linejoin="round"/><path d="M97.16 37.3895L82.76 44.5895H82.75L77.16 47.3895C76.61 45.5495 75.96 43.7495 75.22 41.9895C73.96 38.9695 72.42 36.0695 70.62 33.2795C69.73 31.9095 68.78 30.5695 67.76 29.2595C65.68 26.5695 63.51 24.1895 61.25 22.1095C58.83 19.8895 56.3 18.0195 53.67 16.4995C53.14 16.1995 52.62 15.9095 52.11 15.6495C49.09 14.0995 46.21 13.1895 43.48 12.9295C42.15 12.7895 40.85 12.8095 39.58 12.9895C38.58 13.1295 37.64 13.3595 36.77 13.6995V13.6395L43.48 10.2895L55.23 4.42946L56.25 3.91946C57.27 3.45946 58.38 3.15946 59.58 2.98946C63.89 2.38946 68.58 3.55947 73.67 6.49947C78.76 9.43947 83.46 13.6895 87.76 19.2595C92.07 24.8195 95.2 30.8695 97.16 37.3895Z" stroke="#f74040" stroke-linejoin="round"/><path d="M62.0598 38.6697C62.0598 39.1397 62.0398 39.5797 61.9898 39.9997C61.7498 41.9697 60.9698 43.3297 59.6298 44.0997C58.8098 44.5597 57.8998 44.7397 56.8998 44.6197C56.1098 44.5397 55.2698 44.2697 54.3698 43.8097H54.3598C54.1298 43.7097 53.8998 43.5897 53.6698 43.4497C53.6298 43.4197 53.5798 43.3997 53.5398 43.3697C51.8498 42.3697 50.3498 40.9897 49.0498 39.2397C48.5798 38.6097 48.1398 37.9397 47.7198 37.2197C47.3798 36.6397 47.0798 36.0697 46.8298 35.4997C46.4798 34.7697 46.1898 34.0397 45.9698 33.3097C45.5098 31.8597 45.2798 30.4097 45.2798 28.9797C45.2798 27.9297 45.3998 27.0197 45.6498 26.2397C46.0398 25.0097 46.7198 24.1197 47.7198 23.5497C49.3398 22.6297 51.3198 22.8497 53.6698 24.1997C54.1698 24.4897 54.6498 24.8097 55.1198 25.1697L50.4198 27.5297L50.2398 27.6197H50.2298L50.1098 27.6797C49.1298 28.2397 48.6398 29.3197 48.6398 30.9197C48.6398 31.2597 48.6598 31.5997 48.7098 31.9497C48.8698 33.2297 49.3398 34.5297 50.1098 35.8597C50.5698 36.6597 51.0798 37.3497 51.6398 37.9497C52.2198 38.5797 52.8498 39.1097 53.5398 39.5197C53.5798 39.5497 53.6298 39.5697 53.6698 39.5997C54.9098 40.3197 55.9898 40.4897 56.8998 40.1297C57.0198 40.0897 57.1298 40.0297 57.2398 39.9697L61.3798 37.8997L62.0098 37.5797C62.0398 37.8097 62.0498 38.0497 62.0398 38.2897C62.0598 38.4197 62.0598 38.5397 62.0598 38.6697Z" stroke="#f74040" stroke-linejoin="round"/><path d="M62.0099 37.5794L61.3799 37.8994L57.2399 39.9694C58.2199 39.4194 58.6999 38.3394 58.6999 36.7294C58.6999 36.5994 58.6999 36.4794 58.6899 36.3494C58.6199 34.8694 58.1399 33.3494 57.2399 31.7894C56.2599 30.1094 55.0699 28.8594 53.6699 28.0494C52.4099 27.3194 51.3299 27.1494 50.4199 27.5294L55.1199 25.1694C56.8499 26.4694 58.3499 28.2294 59.6299 30.4294C61.0299 32.8494 61.8299 35.2294 62.0099 37.5794Z" stroke="#f74040" stroke-linejoin="round"/><path d="M58.7001 36.7295C58.7001 38.3395 58.2201 39.4195 57.2401 39.9695C57.1301 40.0295 57.0201 40.0895 56.9001 40.1295C55.9901 40.4895 54.9101 40.3195 53.6701 39.5995C53.6301 39.5695 53.5801 39.5495 53.5401 39.5195C52.8501 39.1095 52.2201 38.5795 51.6401 37.9495C51.0801 37.3495 50.5701 36.6595 50.1101 35.8595C49.3401 34.5295 48.8701 33.2295 48.7101 31.9495C48.6601 31.5995 48.6401 31.2595 48.6401 30.9195C48.6401 29.3195 49.1301 28.2395 50.1101 27.6795L50.2301 27.6195H50.2401L50.4201 27.5295C51.3301 27.1495 52.4101 27.3195 53.6701 28.0495C55.0701 28.8595 56.2601 30.1095 57.2401 31.7895C58.1401 33.3495 58.6201 34.8695 58.6901 36.3495C58.7001 36.4795 58.7001 36.5995 58.7001 36.7295Z" stroke="#f74040" stroke-linejoin="round"/><path d="M97.1598 37.3896C95.7498 40.4396 93.7498 42.5497 91.1398 43.7197L73.4398 52.5696L72.0298 53.2697C72.4598 53.0297 72.8698 52.7596 73.2598 52.4596C74.8698 51.2496 76.1598 49.5596 77.1598 47.3896L82.7498 44.5896H82.7598L97.1598 37.3896Z" stroke="#f74040" stroke-linejoin="round"/></svg>